<?xml version="1.0" encoding="UTF-8" standalone="no"?>
<svg width="147px" height="106px" viewBox="0 0 147 106" version="1.1" xmlns="http://www.w3.org/2000/svg" xmlns:xlink="http://www.w3.org/1999/xlink" xmlns:sketch="http://www.bohemiancoding.com/sketch/ns">
    <!-- Generator: Sketch 3.2 (9961) - http://www.bohemiancoding.com/sketch -->
    <title>logo</title>
    <desc>Created with Sketch.</desc>
    <defs></defs>
    <g id="Welcome" stroke="none" stroke-width="1" fill="none" fill-rule="evenodd" sketch:type="MSPage">
        <g id="Desktop-HD" sketch:type="MSArtboardGroup" transform="translate(-1237.000000, -841.000000)">
            <text id="WELCOME-TO-SOS-CRANE" sketch:type="MSTextLayer" font-family=".Helvetica Neue DeskInterface" font-size="48" font-weight="normal" sketch:alignment="middle" fill="#000000">
                <tspan x="265.512195" y="922">WELCOME TO SOS CRANE &amp; TRUCKING</tspan>
            </text>
            <g id="logo" sketch:type="MSLayerGroup" transform="translate(1219.000000, 832.000000)">
                <g id="Page-1" sketch:type="MSShapeGroup">
                    <g id="Group" transform="translate(0.000000, 5.000000)">
                        <path d="M91.25,106.911197 C130.324146,106.911197 162,84.5513641 162,56.969112 C162,29.3868601 130.324146,7.02702703 91.25,7.02702703 C52.175854,7.02702703 20.5,29.3868601 20.5,56.969112 C20.5,84.5513641 52.175854,106.911197 91.25,106.911197 L91.25,106.911197 Z" id="Oval-4" stroke="#840000" stroke-width="5" fill="#A73333"></path>
                        <path d="M145.834175,88.7454371 C132.857496,99.8400266 113.223582,106.911197 91.25,106.911197 C52.175854,106.911197 20.5,84.5513641 20.5,56.969112 C20.5,45.0406757 26.4242846,34.0889802 36.3091935,25.500164 C62.8593695,34.3774672 111.412259,54.1523553 145.834175,88.7454371 L145.834175,88.7454371 Z" id="Oval-5"></path>
                        <g id="CRANE" transform="translate(68.000000, 18.000000)" fill="#E5B7B7">
                            <path d="M7.90409836,5.81344262 L7.90409836,4.9104918 C7.90409836,3.28016393 7.77868852,2.67819672 7.32721311,1.8504918 C6.70016393,0.696721311 5.44606557,0.0195081967 3.99131148,0.0195081967 C2.81245902,0.0195081967 1.73393443,0.496065574 1.05672131,1.34885246 C0.229016393,2.35213115 0.053442623,3.17983607 0.053442623,5.81344262 L0.053442623,11.4819672 C0.053442623,14.0904918 0.229016393,14.9181967 1.05672131,15.9214754 C1.73393443,16.7742623 2.81245902,17.2508197 3.99131148,17.2508197 C5.47114754,17.2508197 6.70016393,16.5234426 7.32721311,15.2944262 C7.80377049,14.4165574 7.90409836,13.7644262 7.90409836,12.0337705 L7.90409836,11.0806557 L5.37081967,11.0806557 C5.37081967,11.8331148 5.3457377,13.0621311 5.29557377,13.5136066 C5.22032787,14.3663934 4.69360656,14.9181967 3.96622951,14.9181967 C3.38934426,14.9181967 2.93786885,14.5670492 2.73721311,13.965082 C2.61180328,13.6139344 2.56163934,12.9116393 2.56163934,11.3063934 L2.56163934,5.98901639 C2.56163934,4.58442623 2.61180328,3.78180328 2.68704918,3.4557377 C2.86262295,2.75344262 3.31409836,2.35213115 3.96622951,2.35213115 C4.69360656,2.35213115 5.22032787,2.87885246 5.32065574,3.68147541 C5.3457377,4.08278689 5.37081967,4.8352459 5.37081967,5.81344262 L7.90409836,5.81344262 Z M12.3686885,10.0021311 L13.572623,10.0021311 L15.1527869,17 L17.8114754,17 L15.8801639,9.32491803 C17.1091803,8.42196721 17.5606557,7.26819672 17.5606557,5.11114754 C17.5606557,1.7752459 16.2814754,0.270327869 13.3719672,0.270327869 L9.8604918,0.270327869 L9.8604918,17 L12.3686885,17 L12.3686885,10.0021311 Z M12.3686885,7.6695082 L12.3686885,2.60295082 L13.1713115,2.60295082 C13.9739344,2.60295082 14.3,2.70327869 14.5508197,3.05442623 C14.8768852,3.43065574 15.052459,4.23327869 15.052459,5.13622951 C15.052459,5.98901639 14.8768852,6.74147541 14.6260656,7.14278689 C14.3501639,7.54409836 14.0240984,7.6695082 13.1713115,7.6695082 L12.3686885,7.6695082 Z M24.9096721,13.3129508 L25.4865574,17 L28.07,17 L25.1604918,0.270327869 L21.8998361,0.270327869 L19.1659016,17 L21.6490164,17 L22.2259016,13.3129508 L24.9096721,13.3129508 Z M24.5334426,10.9803279 L22.5770492,10.9803279 L23.5301639,4.30852459 L24.5334426,10.9803279 Z M38.0777049,17 L38.0777049,0.270327869 L35.745082,0.270327869 L35.745082,10.2027869 L32.3088525,0.270327869 L29.7755738,0.270327869 L29.7755738,17 L32.1081967,17 L32.1081967,6.66622951 L35.745082,17 L38.0777049,17 Z M47.1322951,0.270327869 L40.31,0.270327869 L40.31,17 L47.1322951,17 L47.1322951,14.667377 L42.8181967,14.667377 L42.8181967,9.5004918 L45.9283607,9.5004918 L45.9283607,7.16786885 L42.8181967,7.16786885 L42.8181967,2.60295082 L47.1322951,2.60295082 L47.1322951,0.270327869 Z"></path>
                        </g>
                        <g id="SOS" transform="translate(52.000000, 39.000000)" fill="#FFFFFF">
                            <path d="M23.2565,8.117 C22.3295,5.233 21.5055,3.8425 19.8575,2.555 C17.9005,0.9585 15.274,0.1345 12.2355,0.1345 C5.592,0.1345 1.2145,4.3575 1.2145,10.6405 C1.2145,13.576 2.3475,16.048 4.4075,17.8505 C6.107,19.241 7.24,19.8075 11.566,21.3525 C15.1195,22.64 16.304,23.7215 16.304,25.6785 C16.304,27.893 14.553,29.3865 11.9265,29.3865 C9.0425,29.3865 7.3945,27.8415 6.416,24.2365 L-0.176,26.0905 C1.575,32.4765 5.4375,35.515 11.772,35.515 C19.0335,35.515 23.926,31.1375 23.926,24.5455 C23.926,21.4555 22.7415,18.932 20.527,17.1295 C19.0335,15.8935 17.7975,15.2755 14.45,13.988 C9.506,12.134 8.5275,11.3615 8.5275,9.4045 C8.5275,7.5505 10.021,6.263 12.1325,6.263 C14.553,6.263 16.0465,7.5505 16.9735,10.5375 L23.2565,8.117 Z M39.9425,0.1345 C31.548,0.1345 27.325,6.057 27.325,17.9535 C27.325,29.4895 31.5995,35.515 39.788,35.515 C47.9765,35.515 52.251,29.4895 52.251,17.8505 C52.251,11.104 50.912,6.469 48.131,3.4305 C46.174,1.319 43.2385,0.1345 39.9425,0.1345 Z M39.8395,6.263 C43.1355,6.263 44.32,9.25 44.32,17.799 C44.32,26.451 43.187,29.3865 39.788,29.3865 C36.389,29.3865 35.256,26.451 35.256,17.7475 C35.256,9.147 36.4405,6.263 39.8395,6.263 Z M78.516,8.117 C77.589,5.233 76.765,3.8425 75.117,2.555 C73.16,0.9585 70.5335,0.1345 67.495,0.1345 C60.8515,0.1345 56.474,4.3575 56.474,10.6405 C56.474,13.576 57.607,16.048 59.667,17.8505 C61.3665,19.241 62.4995,19.8075 66.8255,21.3525 C70.379,22.64 71.5635,23.7215 71.5635,25.6785 C71.5635,27.893 69.8125,29.3865 67.186,29.3865 C64.302,29.3865 62.654,27.8415 61.6755,24.2365 L55.0835,26.0905 C56.8345,32.4765 60.697,35.515 67.0315,35.515 C74.293,35.515 79.1855,31.1375 79.1855,24.5455 C79.1855,21.4555 78.001,18.932 75.7865,17.1295 C74.293,15.8935 73.057,15.2755 69.7095,13.988 C64.7655,12.134 63.787,11.3615 63.787,9.4045 C63.787,7.5505 65.2805,6.263 67.392,6.263 C69.8125,6.263 71.306,7.5505 72.233,10.5375 L78.516,8.117 Z"></path>
                        </g>
                        <g id="TRUCKING" transform="translate(61.000000, 80.000000)" fill="#E5B7B7">
                            <path d="M4.473,1.946 L6.741,1.946 L6.741,-0.007 L0.147,-0.007 L0.147,1.946 L2.373,1.946 L2.373,14 L4.473,14 L4.473,1.946 Z M9.933,8.141 L10.941,8.141 L12.264,14 L14.49,14 L12.873,7.574 C13.902,6.818 14.28,5.852 14.28,4.046 C14.28,1.253 13.209,-0.007 10.773,-0.007 L7.833,-0.007 L7.833,14 L9.933,14 L9.933,8.141 Z M9.933,6.188 L9.933,1.946 L10.605,1.946 C11.277,1.946 11.55,2.03 11.76,2.324 C12.033,2.639 12.18,3.311 12.18,4.067 C12.18,4.781 12.033,5.411 11.823,5.747 C11.592,6.083 11.319,6.188 10.605,6.188 L9.933,6.188 Z M20.475,-0.007 L20.475,9.212 C20.475,10.388 20.433,11.06 20.37,11.333 C20.223,11.921 19.824,12.257 19.299,12.257 C18.795,12.257 18.417,11.963 18.249,11.459 C18.144,11.165 18.102,10.535 18.102,9.212 L18.102,-0.007 L16.002,-0.007 L16.002,9.443 C16.002,11.501 16.17,12.278 16.842,13.097 C17.409,13.79 18.312,14.21 19.299,14.21 C20.265,14.21 21.168,13.79 21.735,13.097 C22.407,12.278 22.575,11.522 22.575,9.443 L22.575,-0.007 L20.475,-0.007 Z M30.975,4.634 L30.975,3.878 C30.975,2.513 30.87,2.009 30.492,1.316 C29.967,0.35 28.917,-0.217 27.699,-0.217 C26.712,-0.217 25.809,0.182 25.242,0.896 C24.549,1.736 24.402,2.429 24.402,4.634 L24.402,9.38 C24.402,11.564 24.549,12.257 25.242,13.097 C25.809,13.811 26.712,14.21 27.699,14.21 C28.938,14.21 29.967,13.601 30.492,12.572 C30.891,11.837 30.975,11.291 30.975,9.842 L30.975,9.044 L28.854,9.044 C28.854,9.674 28.833,10.703 28.791,11.081 C28.728,11.795 28.287,12.257 27.678,12.257 C27.195,12.257 26.817,11.963 26.649,11.459 C26.544,11.165 26.502,10.577 26.502,9.233 L26.502,4.781 C26.502,3.605 26.544,2.933 26.607,2.66 C26.754,2.072 27.132,1.736 27.678,1.736 C28.287,1.736 28.728,2.177 28.812,2.849 C28.833,3.185 28.854,3.815 28.854,4.634 L30.975,4.634 Z M32.613,-0.007 L32.613,14 L34.713,14 L34.713,9.422 L35.679,7.49 L37.464,14 L39.711,14 L36.981,4.865 L39.396,-0.007 L37.191,-0.007 L34.713,5.6 L34.713,-0.007 L32.613,-0.007 Z M43.092,-0.007 L40.992,-0.007 L40.992,14 L43.092,14 L43.092,-0.007 Z M51.912,14 L51.912,-0.007 L49.959,-0.007 L49.959,8.309 L47.082,-0.007 L44.961,-0.007 L44.961,14 L46.914,14 L46.914,5.348 L49.959,14 L51.912,14 Z M60.291,6.902 L56.91,6.902 L56.91,8.645 L58.191,8.645 L58.191,9.212 C58.191,10.367 58.149,11.039 58.086,11.333 C57.96,11.9 57.54,12.236 57.015,12.236 C56.511,12.236 56.112,11.942 55.965,11.438 C55.881,11.165 55.818,10.262 55.818,9.212 L55.818,4.781 C55.818,3.668 55.86,2.933 55.923,2.681 C56.07,2.093 56.469,1.757 56.994,1.757 C57.603,1.757 58.044,2.198 58.128,2.87 C58.149,3.185 58.17,3.731 58.17,4.571 L60.291,4.571 C60.291,2.891 60.27,2.66 60.144,2.156 C59.766,0.686 58.569,-0.217 57.015,-0.217 C56.028,-0.217 55.125,0.182 54.558,0.896 C53.865,1.736 53.718,2.45 53.718,4.634 L53.718,9.527 C53.718,11.27 53.886,12.215 54.348,13.013 C54.81,13.769 55.65,14.21 56.658,14.21 C57.687,14.21 58.275,13.853 58.863,12.887 L59.262,14 L60.291,14 L60.291,6.902 Z"></path>
                        </g>
                        <ellipse id="Oval-5" cx="91" cy="65" rx="91" ry="65"></ellipse>
                    </g>
                </g>
            </g>
        </g>
    </g>
</svg>